<svg xmlns="http://www.w3.org/2000/svg" viewBox="0 0 128 128"><defs><linearGradient id="g" x1="0" x2="1" y1="0" y2="1"><stop offset="0" stop-color="#2f7aff"/><stop offset="1" stop-color="#00b5a9"/></linearGradient></defs>
<rect x="12" y="16" width="104" height="96" rx="8" fill="url(#g)"/><rect x="20" y="24" width="88" height="80" rx="6" fill="white" opacity="0.92"/>
<rect x="26" y="30" width="36" height="32" rx="4" fill="#e9f2ff" stroke="#2f7aff" />
<rect x="30" y="36" width="8" height="6" rx="1" fill="#2f7aff"/><rect x="42" y="36" width="8" height="6" rx="1" fill="#2f7aff"/>
<rect x="30" y="46" width="20" height="10" rx="2" fill="#b9d3ff"/>
<g transform="translate(66,30)"><rect width="36" height="32" rx="4" fill="#eef9f7" stroke="#00b5a9"/>
<g fill="#00b5a9"><rect x="6" y="8" width="4" height="4"/><rect x="14" y="8" width="4" height="4"/><rect x="22" y="8" width="4" height="4"/>
<rect x="6" y="16" width="4" height="4"/><rect x="14" y="16" width="4" height="4"/><rect x="22" y="16" width="4" height="4"/></g></g>
<rect x="24" y="68" width="80" height="6" rx="3" fill="#dde3ea"/><rect x="24" y="80" width="80" height="6" rx="3" fill="#dde3ea"/></svg>